<svg width="175" height="64" viewBox="0 0 175 64" fill="none" xmlns="http://www.w3.org/2000/svg">
<rect x="0.5" y="0.5" width="174" height="63" rx="31.5" fill="url(#paint0_linear_72_719)"/>
<rect x="0.5" y="0.5" width="174" height="63" rx="31.5" fill="url(#paint1_linear_72_719)" fill-opacity="0.3"/>
<rect x="0.5" y="0.5" width="174" height="63" rx="31.5" stroke="url(#paint2_linear_72_719)"/>
<path d="M38.5762 29.4199C38.446 28.9707 38.2409 28.5866 37.9609 28.2676C37.6875 27.9421 37.349 27.6947 36.9453 27.5254C36.5417 27.3496 36.0827 27.2617 35.5684 27.2617C34.8392 27.2617 34.1979 27.444 33.6445 27.8086C33.0977 28.1732 32.668 28.707 32.3555 29.4102C32.0495 30.1068 31.8965 30.9434 31.8965 31.9199C31.8965 32.903 32.0495 33.7428 32.3555 34.4395C32.6615 35.1361 33.0911 35.6699 33.6445 36.041C34.1979 36.4056 34.849 36.5911 35.5977 36.5977C36.2682 36.5977 36.8509 36.474 37.3457 36.2266C37.8405 35.9792 38.2148 35.6309 38.4688 35.1816C38.7227 34.7324 38.8529 34.2018 38.8594 33.5898L39.4648 33.6777H35.793V31.4414H41.6914V33.2188C41.6914 34.4362 41.4342 35.4974 40.9199 36.4023C40.4056 37.3008 39.6829 37.9909 38.752 38.4727C37.8275 38.9544 36.7728 39.1953 35.5879 39.1953C34.2663 39.1953 33.1009 38.9023 32.0918 38.3164C31.0892 37.724 30.3112 36.8809 29.7578 35.7871C29.2044 34.6934 28.9277 33.4108 28.9277 31.9395C28.9277 30.4551 29.2142 29.1628 29.7871 28.0625C30.36 26.9622 31.1445 26.1224 32.1406 25.543C33.1367 24.957 34.263 24.6641 35.5195 24.6641C36.5677 24.6641 37.528 24.8659 38.4004 25.2695C39.2793 25.6667 39.9922 26.2266 40.5391 26.9492C41.0924 27.6719 41.4342 28.4954 41.5645 29.4199H38.5762ZM48.5957 39.2051C47.5215 39.2051 46.5872 38.9837 45.793 38.541C45.0052 38.0983 44.3997 37.4668 43.9766 36.6465C43.5534 35.8262 43.3418 34.8626 43.3418 33.7559C43.3418 32.6686 43.5534 31.7083 43.9766 30.875C44.4062 30.0417 45.0052 29.3971 45.7734 28.9414C46.5482 28.4857 47.4499 28.2578 48.4785 28.2578C49.429 28.2578 50.2786 28.4596 51.0273 28.8633C51.776 29.2604 52.3652 29.8626 52.7949 30.6699C53.2311 31.4772 53.4492 32.4635 53.4492 33.6289V34.4395H44.5234V32.6328H50.7246C50.7181 32.2096 50.6204 31.8288 50.4316 31.4902C50.2493 31.1517 49.9922 30.888 49.6602 30.6992C49.3281 30.5104 48.9505 30.416 48.5273 30.416C48.0781 30.416 47.6777 30.5202 47.3262 30.7285C46.9746 30.9303 46.6979 31.2103 46.4961 31.5684C46.3008 31.9264 46.1999 32.3171 46.1934 32.7402V34.4395C46.1934 34.9733 46.2943 35.4355 46.4961 35.8262C46.7044 36.2103 46.9909 36.5098 47.3555 36.7246C47.7201 36.9395 48.1465 37.0469 48.6348 37.0469C48.9603 37.0404 49.2565 36.9915 49.5234 36.9004C49.7904 36.8092 50.015 36.6888 50.1973 36.5391C50.3796 36.3828 50.5228 36.2005 50.627 35.9922H53.3809C53.2376 36.6432 52.9544 37.2096 52.5312 37.6914C52.1081 38.1732 51.5612 38.5475 50.8906 38.8145C50.2201 39.0749 49.4551 39.2051 48.5957 39.2051ZM60.8516 30.5625H54.5039V28.3945H60.8516V30.5625ZM58.8594 25.8555V35.7383C58.8594 36.0117 58.8984 36.2266 58.9766 36.3828C59.0612 36.5326 59.1751 36.64 59.3184 36.7051C59.4681 36.7702 59.6504 36.8027 59.8652 36.8027C59.9629 36.8092 60.0833 36.8092 60.2266 36.8027C60.3698 36.7962 60.513 36.7897 60.6562 36.7832L60.998 36.7539V39.0391C60.5553 39.1107 60.0508 39.1465 59.4844 39.1465C58.7682 39.1465 58.1465 39.0391 57.6191 38.8242C57.0918 38.6029 56.6816 38.2708 56.3887 37.8281C56.1022 37.3789 55.959 36.8158 55.959 36.1387V25.8555H58.8594ZM67.2969 28.3945H70.1875V39H67.2969V28.3945ZM68.7422 26.998C68.4492 26.998 68.1823 26.9329 67.9414 26.8027C67.707 26.666 67.5182 26.487 67.375 26.2656C67.2318 26.0443 67.1602 25.8001 67.1602 25.5332C67.1602 25.2728 67.2318 25.0286 67.375 24.8008C67.5182 24.5729 67.7103 24.3939 67.9512 24.2637C68.1921 24.1335 68.4557 24.0684 68.7422 24.0684C69.0221 24.0684 69.2826 24.1335 69.5234 24.2637C69.7643 24.3939 69.9564 24.5729 70.0996 24.8008C70.2428 25.0286 70.3145 25.2728 70.3145 25.5332C70.3145 25.8001 70.2428 26.0443 70.0996 26.2656C69.9564 26.487 69.7643 26.666 69.5234 26.8027C69.2826 26.9329 69.0221 26.998 68.7422 26.998ZM75.3242 39H72.4336V28.3945H75.1875V30.25H75.3047C75.5456 29.625 75.9427 29.1367 76.4961 28.7852C77.056 28.4336 77.7233 28.2578 78.498 28.2578C79.2272 28.2578 79.8652 28.4173 80.4121 28.7363C80.9655 29.0553 81.3919 29.5176 81.6914 30.123C81.9974 30.722 82.1504 31.4284 82.1504 32.2422V39H79.2598V32.7402C79.2598 32.3105 79.1849 31.9395 79.0352 31.627C78.8919 31.3145 78.6738 31.0768 78.3809 30.9141C78.0944 30.7448 77.7526 30.6602 77.3555 30.6602C76.9518 30.6602 76.597 30.748 76.291 30.9238C75.985 31.0931 75.7474 31.3438 75.5781 31.6758C75.4089 32.0078 75.3242 32.4017 75.3242 32.8574V39ZM88.5176 24.8594H100.1V27.2812H95.7637V39H92.8633V27.2812H88.5176V24.8594ZM105.1 39.2051C104.038 39.2051 103.114 38.9772 102.326 38.5215C101.545 38.0658 100.943 37.4277 100.52 36.6074C100.096 35.7806 99.8848 34.8236 99.8848 33.7363C99.8848 32.6426 100.096 31.6855 100.52 30.8652C100.943 30.0384 101.545 29.3971 102.326 28.9414C103.114 28.4857 104.038 28.2578 105.1 28.2578C106.148 28.2578 107.066 28.4857 107.854 28.9414C108.648 29.3971 109.253 30.0384 109.67 30.8652C110.087 31.6855 110.295 32.6426 110.295 33.7363C110.295 34.8236 110.087 35.7806 109.67 36.6074C109.253 37.4277 108.648 38.0658 107.854 38.5215C107.066 38.9772 106.148 39.2051 105.1 39.2051ZM105.119 36.9688C105.594 36.9688 106.001 36.8288 106.34 36.5488C106.678 36.2689 106.932 35.8848 107.102 35.3965C107.271 34.9017 107.355 34.3418 107.355 33.7168C107.355 33.0853 107.271 32.5254 107.102 32.0371C106.932 31.5488 106.678 31.1647 106.34 30.8848C106.001 30.6048 105.594 30.4648 105.119 30.4648C104.624 30.4648 104.204 30.6048 103.859 30.8848C103.514 31.1647 103.254 31.5488 103.078 32.0371C102.909 32.5254 102.821 33.0853 102.814 33.7168C102.821 34.3418 102.909 34.9017 103.078 35.3965C103.254 35.8848 103.514 36.2689 103.859 36.5488C104.204 36.8288 104.624 36.9688 105.119 36.9688ZM118.928 28.3945H121.799V39H119.035V37.0859H118.918C118.671 37.7174 118.267 38.2188 117.707 38.5898C117.147 38.9544 116.48 39.1367 115.705 39.1367C114.995 39.1367 114.37 38.9772 113.83 38.6582C113.29 38.3327 112.87 37.8704 112.57 37.2715C112.271 36.666 112.121 35.9564 112.121 35.1426V28.3945H115.012V34.6445C115.012 35.0547 115.087 35.416 115.236 35.7285C115.393 36.0345 115.607 36.2721 115.881 36.4414C116.161 36.6042 116.486 36.6855 116.857 36.6855C117.222 36.6921 117.564 36.6107 117.883 36.4414C118.202 36.2656 118.456 36.0117 118.645 35.6797C118.833 35.3477 118.928 34.9473 118.928 34.4785V28.3945ZM128.83 39.2051C127.762 39.2051 126.835 38.9772 126.047 38.5215C125.259 38.0592 124.657 37.4147 124.24 36.5879C123.824 35.7611 123.615 34.8105 123.615 33.7363C123.615 32.6556 123.827 31.7018 124.25 30.875C124.673 30.0482 125.275 29.4069 126.057 28.9512C126.838 28.4889 127.756 28.2578 128.811 28.2578C129.715 28.2578 130.52 28.4238 131.223 28.7559C131.926 29.0814 132.476 29.5501 132.873 30.1621C133.277 30.7741 133.498 31.4805 133.537 32.2812H130.803C130.751 31.9297 130.64 31.6204 130.471 31.3535C130.301 31.0866 130.077 30.8815 129.797 30.7383C129.523 30.5885 129.211 30.5104 128.859 30.5039C128.397 30.5104 127.993 30.6374 127.648 30.8848C127.303 31.1322 127.033 31.4967 126.838 31.9785C126.643 32.4538 126.545 33.0234 126.545 33.6875C126.545 34.3646 126.639 34.944 126.828 35.4258C127.023 35.901 127.294 36.2689 127.639 36.5293C127.984 36.7832 128.391 36.9069 128.859 36.9004C129.198 36.9069 129.504 36.8418 129.777 36.7051C130.051 36.5618 130.275 36.36 130.451 36.0996C130.633 35.8392 130.751 35.5202 130.803 35.1426H133.537C133.492 35.9499 133.27 36.6595 132.873 37.2715C132.482 37.8835 131.939 38.3587 131.242 38.6973C130.546 39.0358 129.742 39.2051 128.83 39.2051ZM138.215 39H135.324V24.8594H138.137V30.25H138.254C138.501 29.6185 138.892 29.1302 139.426 28.7852C139.966 28.4336 140.63 28.2578 141.418 28.2578C142.16 28.2578 142.808 28.4173 143.361 28.7363C143.915 29.0553 144.341 29.5143 144.641 30.1133C144.94 30.7122 145.09 31.4219 145.09 32.2422V39H142.199V32.7402C142.199 32.304 142.124 31.9297 141.975 31.6172C141.825 31.3047 141.604 31.0671 141.311 30.9043C141.024 30.7415 140.682 30.6602 140.285 30.6602C139.875 30.6602 139.517 30.748 139.211 30.9238C138.905 31.0931 138.661 31.3438 138.479 31.6758C138.303 32.0078 138.215 32.4017 138.215 32.8574V39Z" fill="white"/>
<defs>
<linearGradient id="paint0_linear_72_719" x1="87.5" y1="0" x2="87.5" y2="64" gradientUnits="userSpaceOnUse">
<stop stop-color="#0A1E3C"/>
<stop offset="1" stop-color="#0E2851"/>
</linearGradient>
<linearGradient id="paint1_linear_72_719" x1="87.5" y1="0" x2="87.5" y2="64" gradientUnits="userSpaceOnUse">
<stop stop-color="#004DFF" stop-opacity="0"/>
<stop offset="1" stop-color="#004DFF"/>
</linearGradient>
<linearGradient id="paint2_linear_72_719" x1="87.5" y1="0" x2="87.5" y2="64" gradientUnits="userSpaceOnUse">
<stop stop-color="#111111"/>
<stop offset="1" stop-color="#777777"/>
</linearGradient>
</defs>
</svg>
