<svg width="1014" height="523" viewBox="0 0 1014 523" fill="none" xmlns="http://www.w3.org/2000/svg">
<g filter="url(#filter0_dn_178_1319)">
<path d="M671.014 243.06C672.407 242.694 674.128 242.267 676.143 241.79C677.694 241.425 679.183 242.618 679.183 244.226V325.895C679.183 327.633 677.789 329.048 676.061 329.048H648.228C646.507 329.048 645.107 327.633 645.107 325.895V244.261C645.107 242.653 646.596 241.459 648.146 241.825C650.113 242.287 651.8 242.708 653.173 243.067C656.083 243.826 659.075 244.205 662.08 244.205C665.092 244.205 668.09 243.826 671.007 243.06H671.014ZM247.314 275.842C245.784 276.284 245.053 278.05 245.825 279.451C249.268 285.716 255.51 292.561 266.719 294.982C286.875 299.336 307.051 284.136 314.291 275.807C315.357 274.579 317.283 274.703 318.191 276.056C321.969 281.659 328.246 291.16 332.719 297.812C333.279 298.646 333.286 299.73 332.753 300.578C324.393 313.778 301.3 328.489 275.175 329.924C252.471 331.173 222.076 318.905 210.513 288.862C210.048 287.662 208.757 287.02 207.528 287.372L194.687 291.063C194.025 291.257 193.335 290.863 193.15 290.194L192.044 286.137C191.88 285.529 192.187 284.895 192.761 284.653L205.581 279.223C206.661 278.768 207.268 277.608 207.057 276.449C206.647 274.193 206.326 271.854 206.107 269.439C200.841 210.437 247.328 194.111 265.018 192.276C279.3 190.792 331.715 193.939 333.559 247.904C333.621 249.622 332.508 251.168 330.868 251.644L247.321 275.849L247.314 275.842ZM240.839 260.503C240.914 262.242 242.69 263.36 244.282 262.684L297.339 240.024C298.787 239.403 299.306 237.602 298.411 236.291C294.299 230.288 282.859 218.068 261.746 226.817C242.711 234.711 240.436 251.14 240.832 260.496L240.839 260.503ZM468.559 239.645L399.881 262.18C399.232 262.394 398.877 263.098 399.089 263.76L400.414 267.872C400.591 268.424 401.124 268.783 401.698 268.735L440.432 265.285C442.426 265.105 444.216 266.554 444.448 268.555C446.081 282.866 435.378 294.527 422.503 296.473C388.959 301.558 379.288 280.996 377.649 266.506C375.798 250.153 381.576 228.301 405.782 223.768C419.846 221.132 429.524 225.272 434.462 229.122C435.835 230.191 437.741 230.192 439.08 229.081C446.402 223.022 451.258 218.779 457.473 212.886C458.86 211.568 459.038 209.388 457.856 207.877C444.435 190.758 412.087 191.786 404.724 192.676C387.067 194.801 340.54 210.837 345.792 269.825C349.733 314.054 386.767 330 414.867 330C442.966 330 495.62 300.654 473.169 241.853C472.459 239.996 470.43 239.037 468.559 239.651V239.645ZM627.86 260.993C627.86 299.095 597.281 329.986 559.565 329.986C521.848 329.986 491.269 299.095 491.269 260.993C491.269 222.891 521.842 192 559.558 192C597.275 192 627.854 222.891 627.854 260.993H627.86ZM593.634 260.993C593.634 241.121 578.382 225.01 559.565 225.01C540.748 225.01 525.496 241.121 525.496 260.993C525.496 280.865 540.748 296.977 559.565 296.977C578.382 296.977 593.634 280.865 593.634 260.993ZM821.989 261.628C821.989 297.604 797.462 326.288 769.335 328.116C750.49 329.338 737.267 329.365 704.823 328.206C703.492 328.158 702.433 327.054 702.433 325.701V197.541C702.433 196.195 703.492 195.084 704.823 195.036C737.11 193.87 751.132 193.904 769.957 195.126C785.577 196.14 801.71 207.497 811.792 224.485C815.166 230.178 817.871 236.512 819.64 243.295C821.156 249.104 821.996 255.252 821.996 261.621L821.989 261.628ZM787.988 261.621C787.988 254.086 786.39 246.02 782.804 239.424C778.412 231.351 771.043 225.479 759.971 225.479C757.676 225.479 726.714 225.996 720.096 226.107C719.413 226.12 718.866 226.686 718.88 227.383L718.955 231.592C718.969 232.227 719.44 232.751 720.069 232.813L732.144 234.083C733.879 234.269 735.198 235.746 735.198 237.505V295.935C735.198 296.604 735.717 297.156 736.379 297.184C739.808 297.335 750.101 297.756 759.602 297.756C778.802 297.756 787.995 278.354 787.995 261.614L787.988 261.621ZM662.148 192C651.029 192 642.013 201.108 642.013 212.341C642.013 223.574 651.029 232.682 662.148 232.682C673.268 232.682 682.284 223.574 682.284 212.341C682.284 201.108 673.268 192 662.148 192Z" fill="white"/>
</g>
<defs>
<filter id="filter0_dn_178_1319" x="0" y="0" width="1014" height="522.01" filterUnits="userSpaceOnUse" color-interpolation-filters="sRGB">
<feFlood flood-opacity="0" result="BackgroundImageFix"/>
<feColorMatrix in="SourceAlpha" type="matrix" values="0 0 0 0 0 0 0 0 0 0 0 0 0 0 0 0 0 0 127 0" result="hardAlpha"/>
<feOffset/>
<feGaussianBlur stdDeviation="96"/>
<feComposite in2="hardAlpha" operator="out"/>
<feColorMatrix type="matrix" values="0 0 0 0 0 0 0 0 0 0.55 0 0 0 0 1 0 0 0 0.5 0"/>
<feBlend mode="normal" in2="BackgroundImageFix" result="effect1_dropShadow_178_1319"/>
<feBlend mode="normal" in="SourceGraphic" in2="BackgroundImageFix" result="shape"/>
<feTurbulence type="fractalNoise" baseFrequency="2 2" stitchTiles="stitch" numOctaves="3" result="noise" seed="4303" />
<feColorMatrix in="noise" type="luminanceToAlpha" result="alphaNoise" />
<feComponentTransfer in="alphaNoise" result="coloredNoise1">
<feFuncA type="discrete" tableValues="1 1 1 1 1 1 1 1 1 1 1 1 1 1 1 1 1 1 1 1 1 1 1 1 1 1 1 1 1 1 1 1 1 1 1 1 1 1 1 1 1 1 1 1 1 1 1 1 1 1 1 0 0 0 0 0 0 0 0 0 0 0 0 0 0 0 0 0 0 0 0 0 0 0 0 0 0 0 0 0 0 0 0 0 0 0 0 0 0 0 0 0 0 0 0 0 0 0 0 0 "/>
</feComponentTransfer>
<feComposite operator="in" in2="shape" in="coloredNoise1" result="noise1Clipped" />
<feFlood flood-color="rgba(0, 0, 0, 0.1)" result="color1Flood" />
<feComposite operator="in" in2="noise1Clipped" in="color1Flood" result="color1" />
<feMerge result="effect2_noise_178_1319">
<feMergeNode in="shape" />
<feMergeNode in="color1" />
</feMerge>
<feBlend mode="normal" in="effect2_noise_178_1319" in2="effect1_dropShadow_178_1319" result="effect2_noise_178_1319"/>
</filter>
</defs>
</svg>
