<svg width="48" height="46" viewBox="0 0 48 46" fill="none" xmlns="http://www.w3.org/2000/svg">
<path d="M18.7574 27.9457C18.2386 28.0938 17.9907 28.6821 18.2522 29.1494C19.42 31.2377 21.5371 33.5199 25.3356 34.3263C32.169 35.7772 39.0109 30.7109 41.4651 27.9342C41.8264 27.5253 42.4796 27.566 42.7873 28.0156C44.0685 29.8848 46.1972 33.0516 47.7125 35.2671C47.9026 35.5446 47.9047 35.9055 47.7231 36.1882C44.8887 40.59 37.0586 45.4915 28.1994 45.9713C20.5027 46.3875 10.1964 42.2986 6.27508 32.2828C6.1186 31.8833 5.67963 31.6685 5.26376 31.7863L0.909775 33.0172C0.68504 33.0808 0.4519 32.9504 0.389942 32.7272L0.0150299 31.3754C-0.0406265 31.173 0.0622902 30.9613 0.257622 30.8799L4.60321 29.0691C4.96867 28.9168 5.17555 28.5319 5.10309 28.1439C4.96342 27.3908 4.8542 26.6126 4.78174 25.8074C3.00171 6.14199 18.7637 0.700197 24.7601 0.0868606C29.6035 -0.407564 47.3754 0.641784 47.9992 18.6309C48.0192 19.2046 47.6422 19.7188 47.0866 19.8774L18.7584 27.9457H18.7574ZM16.5625 22.8325C16.5877 23.4114 17.1916 23.7858 17.7292 23.5595L35.7196 16.0054C36.2111 15.7989 36.3865 15.197 36.0841 14.7621C34.6905 12.7614 30.8112 8.68713 23.6532 11.6046C17.2 14.2353 16.4281 19.7126 16.5636 22.8314L16.5625 22.8325Z" fill="white"/>
</svg>
